PathFileType	4	(X/Y/Z)	/Users/niels/Desktop/University/Third Semester/Perception and Action/Exam/Gymnastics Motion Tracking/Code for Gym Tracking/Analyzed Data/Webcam_Backflip/id6_5_baseline_Sports2D/id6_5_baseline_Sports2D_px_person00.trc
DataRate	CameraRate	NumFrames	NumMarkers	Units	OrigDataRate	OrigDataStartFrame	OrigNumFrames
29.8125	29.8125	11	22	m	29.8125	20	160
Frame#	Time	Hip			RHip			RKnee			RAnkle			RBigToe			RSmallToe			RHeel			LHip			LKnee			LAnkle			LBigToe			LSmallToe			LHeel			Neck			Head			Nose			RShoulder			RElbow			RWrist			LShoulder			LElbow			LWrist		
		X1	Y1	Z1	X2	Y2	Z2	X3	Y3	Z3	X4	Y4	Z4	X5	Y5	Z5	X6	Y6	Z6	X7	Y7	Z7	X8	Y8	Z8	X9	Y9	Z9	X10	Y10	Z10	X11	Y11	Z11	X12	Y12	Z12	X13	Y13	Z13	X14	Y14	Z14	X15	Y15	Z15	X16	Y16	Z16	X17	Y17	Z17	X18	Y18	Z18	X19	Y19	Z19	X20	Y20	Z20	X21	Y21	Z21	X22	Y22	Z22
20	0.670859538784067	0.9589877195781669	-0.5791037159656682	0.0	0.9620254153496027	-0.5797989796955418	0.0	0.9681392948156711	-0.6799426095195237	0.0	0.9481002072463393	-0.7764459751579925	0.0	0.9772919985718808	-0.7956846272134294	0.0	0.971846911418802	-0.797446254987177	0.0	0.9377747470907942	-0.7913559270228342	0.0	0.9562847920426865	-0.576104751805867	0.0	0.9646910769025432	-0.6796155472068692	0.0	0.9467607585583822	-0.7737831042330537	0.0	0.9760248823863122	-0.7968884765732369	0.0	0.9711401257703234	-0.7918015160605851	0.0	0.9369085599215033	-0.7841714869433223	0.0	0.9750631242552534	-0.44893454743384353	0.0	1.0017493870513086	-0.3791762044180666	0.0	1.0089129259262812	-0.4128581620478318	0.0	0.9763884628222734	-0.4531894145512231	0.0	1.0304358024670301	-0.4064869376465478	0.0	1.0661468922729251	-0.35375734737251935	0.0	0.9691882473400084	-0.4489927409677183	0.0	1.0222413381764586	-0.4084523048260489	0.0	1.0641643400830991	-0.35769006590809693	0.0
21	0.7044025157232703	0.9560077696099513	-0.5785927832569591	0.0	0.9590506958630509	-0.5797247891327237	0.0	0.9665790405602096	-0.6796941036035855	0.0	0.9480104266603954	-0.7763628046905225	0.0	0.9761710282161303	-0.7949124013355513	0.0	0.9708163916652699	-0.7971807844793761	0.0	0.9379502774959285	-0.7906732931557958	0.0	0.9526458854463365	-0.5755950070393263	0.0	0.9625810029795799	-0.6793700059658629	0.0	0.946669108213594	-0.7733784195032114	0.0	0.9747326629355617	-0.7963072146367479	0.0	0.9699032449579696	-0.7911971559846463	0.0	0.9367949385036026	-0.7837530876751143	0.0	0.976321590717558	-0.4499200804242293	0.0	1.002560316985037	-0.38090309476647194	0.0	1.011085913150127	-0.41429008388136973	0.0	0.9777363290486951	-0.4550127229302109	0.0	1.0374603987078252	-0.4135867587037334	0.0	1.0781701443596894	-0.36479900937086135	0.0	0.970197546068676	-0.4501635190975075	0.0	1.0291556784938434	-0.4142147898600355	0.0	1.0762412363484486	-0.36703954716716103	0.0
22	0.7379454926624737	0.9529877684416732	-0.5781848869148312	0.0	0.9557951452468049	-0.5794725866801556	0.0	0.9646692129512904	-0.6794572332046219	0.0	0.9480219162684864	-0.7762142019431197	0.0	0.9753063398398513	-0.7941397312695401	0.0	0.9699922201362541	-0.7969070497478447	0.0	0.9384101176340511	-0.790041294768381	0.0	0.9492330001354261	-0.5750920614061759	0.0	0.9604670636570779	-0.6790277776341831	0.0	0.9467309065197707	-0.7729294647992471	0.0	0.9740509802563216	-0.7954770080195739	0.0	0.9693011036957025	-0.7903480058718865	0.0	0.9371421535451736	-0.7834119927958858	0.0	0.978006471382608	-0.4506724005471127	0.0	1.0034363279471377	-0.382411725376756	0.0	1.013369632570366	-0.4156906956581909	0.0	0.9793170592198378	-0.4567922055074982	0.0	1.0441856517437218	-0.4229305144150224	0.0	1.0907571085874916	-0.37942937341390737	0.0	0.9717674646080962	-0.45148946292348113	0.0	1.036512449947243	-0.4222983245412463	0.0	1.0886734284393687	-0.3805170101384425	0.0
23	0.771488469601677	0.9501505801709131	-0.5779520590660923	0.0	0.9525073022741335	-0.5790539147790014	0.0	0.9625335285131795	-0.679210947768305	0.0	0.948054336945925	-0.7759980088295036	0.0	0.9749435969468833	-0.793414370966875	0.0	0.9695815734965669	-0.7966418109295919	0.0	0.938953387479952	-0.7896021585439126	0.0	0.9463433818117848	-0.5746581919881042	0.0	0.9584669858239734	-0.6785970483355147	0.0	0.9468215339078796	-0.7724741024774917	0.0	0.9741276666533971	-0.7945012113760463	0.0	0.9694005162450378	-0.7893869191818981	0.0	0.9376870261355031	-0.783261620536954	0.0	0.9800610639005366	-0.45115648703152844	0.0	1.0044402998101143	-0.38349746234669846	0.0	1.0155732238129727	-0.41699255854429135	0.0	0.9811080370581504	-0.4583694603724543	0.0	1.0497723219090127	-0.43455484940833033	0.0	1.102570844717681	-0.3981686820728528	0.0	0.9739096750607995	-0.452888301616717	0.0	1.0433579026399664	-0.4328848390293055	0.0	1.1000055113154037	-0.39864674606945744	0.0
24	0.8050314465408803	0.9476793541036587	-0.5779106619265697	0.0	0.9494444424337092	-0.578576547547859	0.0	0.9603813268631779	-0.6789620907790558	0.0	0.9479808744046903	-0.7757595870830037	0.0	0.9750728685984501	-0.792790346199556	0.0	0.969595449550998	-0.796372595218609	0.0	0.939332663571567	-0.7893808967581378	0.0	0.9441355765104303	-0.5743869476384963	0.0	0.9566729436705148	-0.678129765757274	0.0	0.9468231998595733	-0.7720665246748692	0.0	0.97473422698608	-0.7935546833330224	0.0	0.9698910770057533	-0.7885529962506189	0.0	0.938102962121385	-0.7833727634969941	0.0	0.9822989168212078	-0.45144202401428074	0.0	1.0056056187225921	-0.3841692372445374	0.0	1.0175540003625279	-0.4182159707589294	0.0	0.9829869524806698	-0.4597616427995189	0.0	1.0534435014591157	-0.4482466618339345	0.0	1.1119651932639256	-0.4213789529361014	0.0	0.9763216592959373	-0.45439257072236583	0.0	1.048522743291564	-0.4458141174755484	0.0	1.1087021153177885	-0.4214654451674505	0.0
25	0.8385744234800837	0.94569609087436	-0.5780659261094047	0.0	0.9468496710463439	-0.5782229802207228	0.0	0.9584455429810219	-0.678784684000374	0.0	0.9477473561518167	-0.7756286050272835	0.0	0.9755623857254658	-0.7923922474497066	0.0	0.9699366912745393	-0.7961370451477355	0.0	0.9394030697829789	-0.7893633994324168	0.0	0.9426681456038983	-0.5744047371573267	0.0	0.9551977326178835	-0.6777411666188867	0.0	0.9467106960252116	-0.771813662890591	0.0	0.9755030369159403	-0.7928514502939722	0.0	0.9704725382805502	-0.7880947985622663	0.0	0.9382199143929495	-0.7837827493340275	0.0	0.9844840947776782	-0.45171106480008755	0.0	1.0068943531871744	-0.38466679095691536	0.0	1.0192448005884058	-0.4194361225999188	0.0	0.9847461736644701	-0.46115882091852683	0.0	1.0545758791877804	-0.46351606315907057	0.0	1.1172448204981136	-0.4488361020022061	0.0	0.9785099541443114	-0.4561551991142541	0.0	1.0508546515174386	-0.4605940373766906	0.0	1.113239455135695	-0.4483576392455291	0.0
26	0.8721174004192871	0.9442635230022863	-0.5784455836574499	0.0	0.9449366310855721	-0.5781742567316432	0.0	0.9569227490696585	-0.6787696436466073	0.0	0.9474170565306319	-0.7757660934287287	0.0	0.9763471925383297	-0.7923867506441572	0.0	0.9705233981841963	-0.7960563013325344	0.0	0.9392190280693711	-0.7895884915380135	0.0	0.9419262075948834	-0.57481754302399	0.0	0.9541458682490498	-0.6775684251771592	0.0	0.9465411810546892	-0.7718545057408835	0.0	0.9761902557775564	-0.7925633131729292	0.0	0.971066190116896	-0.7881428902820101	0.0	0.9380824853635455	-0.7845134590053918	0.0	0.9864125869455028	-0.45216556290162496	0.0	1.0082149308444701	-0.38531301275414515	0.0	1.0206433803013437	-0.4207038599005043	0.0	0.9861590439534579	-0.46279031201733367	0.0	1.0527541915245484	-0.4796586228636172	0.0	1.1169712929792128	-0.47940725533050477	0.0	0.98004680267782	-0.4583144291485638	0.0	1.0494332781585982	-0.47648711259848053	0.0	1.1122045050858682	-0.47795510191950963	0.0
27	0.9056603773584905	0.9434172251992515	-0.5791080305198217	0.0	0.9438356852251302	-0.5785651088494184	0.0	0.9559262950441325	-0.6789910195078773	0.0	0.9471097848666611	-0.7762997739150741	0.0	0.9774912975144909	-0.7929194883266861	0.0	0.971369528533643	-0.796301050085456	0.0	0.9389981709218984	-0.7901790266538646	0.0	0.9418536935255817	-0.5756972130802948	0.0	0.9535632785792887	-0.6777316411161652	0.0	0.946380024065633	-0.7723012765921861	0.0	0.9767836031280123	-0.7927460903071685	0.0	0.9717720314430399	-0.7886904754042452	0.0	0.9378529197545021	-0.7855876891463184	0.0	0.9879575672540649	-0.45290498137834995	0.0	1.0095367886349382	-0.3863449231658774	0.0	1.021795950607466	-0.42200845196513975	0.0	0.9871253522255398	-0.4647412804745497	0.0	1.0478331639471303	-0.49578236235132217	0.0	1.110199414183592	-0.5110503993108562	0.0	0.9807590149493118	-0.4608369668982464	0.0	1.043766871648958	-0.4925211706408122	0.0	1.1045547826246456	-0.5081528457715913	0.0
28	0.9392033542976937	0.9432015474879094	-0.5801208468166623	0.0	0.9435787104622504	-0.5794706654924209	0.0	0.9554793441472199	-0.6795297768322487	0.0	0.9469193872594027	-0.77729525710471	0.0	0.9790855943584927	-0.7940420296462435	0.0	0.9725172871840649	-0.7970144880779219	0.0	0.9389509769204839	-0.791273440610701	0.0	0.9423924606071626	-0.577097391987025	0.0	0.9534262934415164	-0.6783400986697469	0.0	0.9462588323477497	-0.7731993132021646	0.0	0.9774681368644341	-0.7933509262816236	0.0	0.9727398491413092	-0.7896623410215469	0.0	0.937684208577534	-0.7870082373760415	0.0	0.9890924333971735	-0.453922364650337	0.0	1.0109520316806802	-0.3878685051965931	0.0	1.0228002644282017	-0.4233630400235823	0.0	0.9877401938090099	-0.46691364525512374	0.0	1.039946849054175	-0.5107864348437946	0.0	1.0965829555618882	-0.5410814111150073	0.0	0.9807758889754123	-0.4635215792869799	0.0	1.0339869143811409	-0.5074551233291855	0.0	1.0899570239487595	-0.5363426359514366	0.0
29	0.9727463312368971	0.9436841430231708	-0.581503124908943	0.0	0.9441428239645523	-0.5808820478889625	0.0	0.9555344092832286	-0.6804782416053771	0.0	0.9468827543653568	-0.778727914612893	0.0	0.9810673132194808	-0.795667345100831	0.0	0.9738813914959223	-0.7982447510763552	0.0	0.9391370715106818	-0.7928956882094087	0.0	0.9434920037551053	-0.5790103259481687	0.0	0.9536711557278806	-0.6794768309984354	0.0	0.946213963422335	-0.7745081534231208	0.0	0.9785193973125943	-0.7942939791788871	0.0	0.9740554617566607	-0.7909616752381339	0.0	0.9376726492809085	-0.7886967148815273	0.0	0.9898975073455919	-0.4551485429545069	0.0	1.0125676851824321	-0.38989423461859957	0.0	1.0237762719869123	-0.4248663735617174	0.0	0.9881884178096308	-0.46910907558138165	0.0	1.0294482666545393	-0.5234173799686436	0.0	1.076420639612432	-0.5666231871637311	0.0	0.980460248150105	-0.46610191437331705	0.0	1.0209982834963598	-0.519897675991073	0.0	1.0689971172960355	-0.5598761972771131	0.0
30	1.0062893081761004	0.9449036740076013	-0.5831636411538423	0.0	0.9454570123970658	-0.5826811529344036	0.0	0.9559893783577375	-0.68186024718121	0.0	0.9469810029664658	-0.7804436758180956	0.0	0.9830463953745483	-0.7975705638540389	0.0	0.9751619771901907	-0.7999006676556558	0.0	0.939475830894413	-0.7948806035266714	0.0	0.9450673298825498	-0.5812861523311553	0.0	0.9542319569451578	-0.6810937304910265	0.0	0.9463057827372383	-0.7760703180883788	0.0	0.980056981454086	-0.7954613831138847	0.0	0.9756119225730213	-0.7924296680378292	0.0	0.9378444539566085	-0.7904481692776227	0.0	0.9905330494180214	-0.45647472503752223	0.0	1.0143906157563818	-0.3923125808541786	0.0	1.0248115270805895	-0.42660796274374907	0.0	0.9886106971998375	-0.47111102198887483	0.0	1.016891759623087	-0.5324871347996668	0.0	1.0507803738781494	-0.5851775560118603	0.0	0.9801953734707491	-0.4683062420132492	0.0	1.006342844239764	-0.5285966747574523	0.0	1.0432095882344405	-0.5766090839352583	0.0
